<?xml version="1.0" encoding="UTF-8" standalone="no"?>
<!-- Created with Inkscape (http://www.inkscape.org/) -->

<svg
   width="1000"
   height="1000"
   viewBox="0 0 264.58334 264.58334"
   version="1.1"
   id="svg1"
   xmlns="http://www.w3.org/2000/svg"
   xmlns:svg="http://www.w3.org/2000/svg">
  <defs
     id="defs1">
    <filter
       style="color-interpolation-filters:sRGB"
       id="filter3"
       x="0"
       y="0"
       width="1"
       height="1">
      <feColorMatrix
         type="hueRotate"
         values="180"
         result="color1"
         id="feColorMatrix2" />
      <feColorMatrix
         values="-1 0 0 0 1 0 -1 0 0 1 0 0 -1 0 1 -0.21 -0.72 -0.07 1 0 "
         result="color2"
         id="feColorMatrix3" />
    </filter>
  </defs>
  <rect
     style="fill:#000000;stroke:#ffffff;stroke-width:0.018773"
     id="rect7"
     width="264.56458"
     height="264.56458"
     x="0.0093865003"
     y="0.0093865003" />
  <path
     d="m 130.36141,238.09054 c -0.77612,-0.14987 -2.23473,-0.59022 -2.91651,-0.8805 -1.04937,-0.44678 -81.673328,-47.42065 -82.682916,-48.17348 -2.764553,-2.06147 -4.530184,-5.24293 -4.931829,-8.88654 -0.190209,-1.72552 -0.190209,-94.008212 0,-95.73374 0.40162,-3.643464 2.166405,-6.823504 4.931829,-8.886921 0.456018,-0.340256 10.073335,-6.001744 21.371818,-12.581088 11.298477,-6.579337 21.65542,-12.610833 23.015418,-13.403329 28.50623,-16.611002 37.68159,-21.927226 38.29624,-22.188914 1.75786,-0.74844 2.56935,-0.897648 4.88147,-0.897648 2.32363,0 3.12114,0.148176 4.92037,0.914216 0.80927,0.344552 80.49192,46.688475 82.06904,47.731859 2.58923,1.712976 4.48109,4.460728 5.29485,7.690288 l 0.28465,1.129689 v 48.358728 48.3587 l -0.28465,1.12971 c -0.81373,3.22944 -2.70515,5.97664 -5.29485,7.69045 -1.22952,0.81369 -80.29724,46.86474 -81.47334,47.45213 -0.52306,0.26126 -1.46461,0.62998 -2.0923,0.81937 -0.98602,0.29753 -1.40861,0.3494 -3.10677,0.3813 -1.08102,0.0203 -2.10816,0.009 -2.28252,-0.0242 z m -4.00797,-16.54025 c 0.0423,-0.1116 0.0769,-19.35354 0.0769,-42.7599 V 136.2334 l -0.28999,-0.43585 c -0.2304,-0.34638 -1.69484,-1.25432 -7.13284,-4.42231 -52.512183,-30.59197 -65.599911,-38.207744 -65.951171,-38.3772 -0.340583,-0.164272 -0.450584,-0.170664 -0.611577,-0.03552 -0.176465,0.14816 -0.1963,4.467649 -0.1963,42.76962 0,41.22341 0.008,42.61932 0.234846,43.05177 0.194645,0.37045 0.710158,0.72588 3.011659,2.07646 1.527249,0.89621 2.865262,1.63217 2.973365,1.63547 0.108102,0.003 0.265024,-0.0633 0.34872,-0.14795 0.117673,-0.11903 0.15217,-8.84022 0.15217,-38.47257 0,-34.66411 0.01898,-38.33788 0.199264,-38.52022 0.109596,-0.11087 0.226233,-0.20157 0.259189,-0.20157 0.05512,0 6.865849,3.96193 45.819335,26.65407 9.33828,5.43995 13.96384,8.20318 14.13896,8.44637 l 0.26028,0.36141 0.0634,38.63541 0.0634,38.63544 0.26196,0.35493 c 0.32996,0.447 5.45168,3.48117 5.9063,3.49893 0.19777,0.008 0.36669,-0.0701 0.41211,-0.1898 z m 15.35272,-1.37963 c 1.95457,-1.14835 2.73518,-1.67706 2.94826,-1.99687 l 0.28978,-0.43498 0.004,-38.36658 c 0.004,-36.94632 0.0116,-38.38573 0.23557,-38.88498 0.22715,-0.50585 0.94486,-0.93316 29.51151,-17.57089 16.10323,-9.37884 29.58021,-17.21769 29.94877,-17.41966 0.54036,-0.29613 0.70611,-0.33703 0.85594,-0.21123 0.16248,0.1364 0.18585,4.96675 0.18585,38.43807 0,26.1435 0.0417,38.36073 0.13126,38.53016 0.0722,0.13648 0.22394,0.24812 0.33723,0.24812 0.11328,0 1.45845,-0.73044 2.98928,-1.62322 2.04385,-1.19197 2.8469,-1.72871 3.02267,-2.0203 0.23335,-0.38709 0.23939,-1.46988 0.23984,-43.06403 0,-38.480509 -0.019,-42.683222 -0.19714,-42.832846 -0.16415,-0.137792 -0.28766,-0.120192 -0.72913,0.103904 -0.29235,0.148368 -16.75992,9.725762 -36.59465,21.283082 -24.29547,14.15652 -36.15024,21.13146 -36.33012,21.37543 l -0.26701,0.36215 -0.0347,42.54499 c -0.0192,23.39975 -0.004,42.67487 0.034,42.8336 0.12604,0.52791 0.66822,0.32278 3.41999,-1.29392 z m -25.92436,-4.90357 c 0.078,-0.20771 0.12366,-6.51257 0.12366,-17.09719 v -16.76817 l -0.28532,-0.56552 c -0.2822,-0.55932 -0.57061,-0.73164 -26.269345,-15.69485 -20.38606,-11.86988 -26.027465,-15.10162 -26.185588,-15.00072 -0.182326,0.11633 -0.204643,1.76987 -0.233731,17.31555 l -0.03219,17.18695 0.285769,0.42469 c 0.206199,0.30643 1.038167,0.86556 2.987672,2.00788 1.48603,0.87075 2.810742,1.58319 2.943787,1.58319 0.133046,0 0.300977,-0.11165 0.373167,-0.24812 0.08797,-0.16625 0.131275,-4.4598 0.131275,-13.01514 0,-12.27374 0.009,-12.77191 0.23373,-12.89357 0.191285,-0.10355 3.697032,1.88938 19.306325,10.97517 10.489939,6.10593 19.243799,11.27038 19.453029,11.47656 l 0.38042,0.37486 0.0635,13.11344 c 0.0465,9.5929 0.1028,13.18269 0.21017,13.37141 0.0807,0.14189 0.27124,0.37193 0.42337,0.51119 0.48695,0.4458 5.37883,3.25884 5.67824,3.26524 0.19607,0.004 0.32806,-0.0992 0.41212,-0.32285 z m 36.53907,-1.29001 c 2.44667,-1.42571 2.80812,-1.67784 3.02679,-2.11139 0.24164,-0.47915 0.2483,-0.8373 0.2483,-13.36987 V 185.6183 l 0.28777,-0.43197 c 0.23014,-0.34545 2.2428,-1.57103 10.04943,-6.11945 29.58763,-17.23877 28.71519,-16.73868 28.91206,-16.57341 0.16333,0.13712 0.18764,1.79952 0.18764,12.83244 0,7.92507 0.0465,12.79823 0.12366,13.00396 0.0759,0.20166 0.22173,0.32903 0.37699,0.32903 0.27901,0 5.21509,-2.8204 5.69751,-3.25545 0.6788,-0.61216 0.6494,0.20084 0.6494,-17.95531 0,-16.22087 -0.009,-16.86883 -0.23497,-17.15128 l -0.23499,-0.29354 -0.49416,0.26199 c -0.5914,0.31355 -48.50231,28.20857 -50.33887,29.30868 -0.76071,0.45564 -1.3636,0.91241 -1.48998,1.12881 -0.1956,0.33496 -0.21224,1.70202 -0.21224,17.4255 0,9.38411 0.0346,17.15332 0.0769,17.26492 0.0423,0.1116 0.19245,0.2029 0.33357,0.2029 0.14116,0 1.50696,-0.72858 3.03513,-1.61904 z M 115.7818,174.98952 c 0.16965,-0.45141 0.16671,-30.99991 -0.003,-31.61808 -0.069,-0.25095 -0.28259,-0.60418 -0.47482,-0.78498 -0.4154,-0.39068 -51.668444,-30.24968 -51.923654,-30.24968 -0.485531,0 -0.480035,-0.18528 -0.480035,16.20027 0,17.95438 -0.104277,16.28864 1.064084,16.9993 4.263667,2.5935 51.192365,29.78221 51.405005,29.78221 0.19315,0 0.32952,-0.10885 0.4123,-0.32904 z M 89.276028,151.85801 C 74.00273,142.94921 70.134438,140.64118 69.905294,140.30033 l -0.286297,-0.42589 0.03266,-7.57969 c 0.03227,-7.46991 0.03637,-7.58017 0.286314,-7.61463 0.149694,-0.0206 8.099122,4.53346 19.401434,11.11479 15.029355,8.7516 19.209415,11.23973 19.434145,11.5679 l 0.2863,0.41811 -0.0327,7.57969 -0.0327,7.57966 -0.31702,0.0247 c -0.21686,0.017 -6.34641,-3.49214 -19.40143,-11.10703 z m 86.177812,8.40865 c 25.45759,-14.82 25.86034,-15.06053 26.14125,-15.61228 l 0.28533,-0.56039 v -15.63048 c 0,-10.5292 -0.043,-15.71148 -0.13128,-15.8786 -0.0722,-0.13648 -0.2427,-0.24812 -0.3789,-0.24812 -0.32585,0 -51.55726,29.81739 -52.05123,30.29454 l -0.3804,0.36748 -0.0333,15.99935 c -0.0183,8.79965 -0.006,16.07159 0.0277,16.15988 0.0333,0.0883 0.19675,0.16052 0.36281,0.16052 0.16941,0 11.64881,-6.60551 26.15788,-15.0519 z m -19.77334,2.65223 c -0.0465,-0.047 -0.0844,-3.43914 -0.0844,-7.53801 0,-7.02212 0.0137,-7.4783 0.23606,-7.89944 0.19931,-0.37738 0.78652,-0.76806 3.77249,-2.5099 5.85395,-3.41481 19.80698,-11.54456 27.59568,-16.07865 4.0264,-2.34392 7.42168,-4.242 7.54501,-4.21795 0.21152,0.0412 0.22426,0.48281 0.22426,7.76791 v 7.72421 l -0.38042,0.36984 c -0.47814,0.46482 -38.26854,22.46751 -38.58876,22.46751 -0.12939,0 -0.27329,-0.0385 -0.31977,-0.0855 z m 13.73281,-59.08119 c 24.43208,-14.231604 36.49241,-21.324172 36.57381,-21.508748 0.0881,-0.199768 0.072,-0.323368 -0.0588,-0.450192 C 205.82912,81.78261 194.849,75.357311 181.52795,67.600327 168.20688,59.84335 152.03473,50.42487 145.58979,46.670374 c -6.44493,-3.754497 -11.99623,-6.973481 -12.33623,-7.153321 -0.48115,-0.254504 -0.72624,-0.309496 -1.10573,-0.248104 -0.41044,0.0664 -25.07461,14.362665 -71.552204,41.474339 -1.835258,1.07056 -2.067738,1.26792 -1.927867,1.636648 0.03907,0.102944 1.316391,0.911064 2.838515,1.795808 2.466141,1.433472 2.832356,1.60864 3.362926,1.60864 0.55848,0 1.929924,-0.777344 22.106732,-12.530169 11.831228,-6.891592 23.565598,-13.7256 26.076358,-15.186697 2.51079,-1.461088 7.64635,-4.45204 11.41239,-6.64656 6.0412,-3.520288 6.91074,-3.990032 7.38569,-3.990032 0.48034,0 1.92871,0.809952 13.44175,7.516824 7.09686,4.134264 20.50627,11.941241 29.7987,17.348857 10.61552,6.177552 16.92434,9.920761 16.97342,10.070793 0.0431,0.131784 0.003,0.311808 -0.0934,0.401744 -0.0943,0.08963 -14.86525,8.716736 -32.82427,19.171316 -17.95899,10.45461 -32.75832,19.11279 -32.88736,19.2404 -0.18434,0.18227 -0.20588,0.28639 -0.10045,0.48562 0.0738,0.13948 1.11797,0.82475 2.32037,1.52283 3.57202,2.07375 3.41082,1.99525 3.97466,1.93552 0.39074,-0.0414 8.87774,-4.92956 36.95957,-21.28713 z m -40.71086,11.35745 c 3.45807,-2.01514 7.00072,-4.07999 7.8725,-4.5886 0.87179,-0.50859 4.4953,-2.61488 8.05224,-4.68063 3.55691,-2.06575 6.60135,-3.88551 6.7654,-4.04391 0.23628,-0.22815 0.27126,-0.338 0.16834,-0.52854 -0.13534,-0.25054 -51.42136,-30.184591 -52.000632,-30.351151 -0.181466,-0.05216 -0.507167,-0.06176 -0.723773,-0.02128 -0.46879,0.08761 -29.349104,16.876625 -29.531912,17.167817 -0.08513,0.135584 -0.08084,0.273968 0.0132,0.425432 0.07662,0.123464 1.360268,0.938064 2.852507,1.810225 3.507409,2.049951 3.133166,2.030608 6.077918,0.31408 1.218111,-0.710065 6.152094,-3.586625 10.964411,-6.392385 9.345578,-5.448792 9.346855,-5.449416 10.218635,-4.994632 0.364035,0.189911 10.960906,6.350488 27.442976,15.954225 2.02258,1.178504 5.25919,3.062816 7.19252,4.187336 1.9333,1.124523 3.54756,2.127333 3.58722,2.228453 0.0396,0.10112 -0.0298,0.28652 -0.15473,0.41201 -0.12478,0.12549 -5.04868,3.03434 -10.94202,6.46409 -5.89336,3.42977 -10.79389,6.3132 -10.89013,6.40765 -0.43292,0.42491 -0.0904,0.72907 2.52887,2.24578 2.92105,1.69143 3.19421,1.81547 3.78574,1.71873 0.23993,-0.0392 3.23943,-1.70606 6.72074,-3.73473 z m 41.72989,-24.30863 c 13.08613,-7.622424 13.50493,-7.878016 13.50493,-8.24268 0,-0.410792 1.02088,0.210007 -14.64618,-8.906177 -2.26667,-1.318896 -11.57256,-6.738472 -20.67973,-12.043473 -14.07362,-8.197992 -16.63167,-9.645456 -17.04603,-9.645456 -0.41314,0 -2.51114,1.177528 -13.74828,7.716368 -7.29344,4.244009 -13.42093,7.829041 -13.61663,7.966745 -0.2607,0.18344 -0.34544,0.338168 -0.31701,0.578904 0.0346,0.292024 2.88474,1.986136 25.65375,15.247889 14.08824,8.205656 25.78615,15.009049 25.99538,15.118641 0.24003,0.125736 0.56763,0.176456 0.88766,0.137432 0.37587,-0.04584 4.00417,-2.098736 14.01214,-7.928193 z m -14.3398,-0.332999 c -0.75605,-0.328217 -38.29534,-22.313003 -38.35123,-22.460306 -0.0388,-0.102144 0.0316,-0.286352 0.15642,-0.40936 0.20646,-0.203552 11.09343,-6.592144 12.26539,-7.197465 1.04888,-0.54176 -0.16401,-1.184208 20.63342,10.929121 10.55125,6.145521 19.22469,11.240105 19.2743,11.321297 0.0496,0.08118 0.0409,0.240471 -0.019,0.35396 -0.0599,0.11348 -2.95677,1.862704 -6.43721,3.887152 -5.43612,3.162024 -6.39803,3.679553 -6.82467,3.671801 -0.27314,-0.0048 -0.58699,-0.04824 -0.69744,-0.0962 z"
     style="fill:#000000;stroke-width:0.127538;filter:url(#filter3)"
     id="path1" />
</svg>
