<?xml version="1.0" encoding="UTF-8" standalone="no"?>
<!-- Created with Inkscape (http://www.inkscape.org/) -->

<svg
   width="1500"
   height="1500"
   viewBox="0 0 396.87501 396.87501"
   version="1.1"
   id="svg1"
   xmlns="http://www.w3.org/2000/svg"
   xmlns:svg="http://www.w3.org/2000/svg">
  <defs
     id="defs1">
    <filter
       style="color-interpolation-filters:sRGB"
       id="filter2"
       x="0"
       y="0"
       width="1"
       height="1">
      <feColorMatrix
         type="hueRotate"
         values="180"
         result="color1"
         id="feColorMatrix1" />
      <feColorMatrix
         values="-1 0 0 0 1 0 -1 0 0 1 0 0 -1 0 1 -0.21 -0.72 -0.07 1 0 "
         result="color2"
         id="feColorMatrix2" />
    </filter>
    <filter
       style="color-interpolation-filters:sRGB"
       id="filter4"
       x="-3.0586136e-05"
       y="-0.00019277046"
       width="1.0000612"
       height="1.0003855">
      <feColorMatrix
         type="hueRotate"
         values="180"
         result="color1"
         id="feColorMatrix3" />
      <feColorMatrix
         values="-1 0 0 0 1 0 -1 0 0 1 0 0 -1 0 1 -0.21 -0.72 -0.07 1 0 "
         result="color2"
         id="feColorMatrix4" />
    </filter>
  </defs>
  <g
     id="g1"
     transform="translate(0,-38.192929)">
    <rect
       style="fill:#000000;stroke:#ffffff;stroke-width:0.0198437"
       id="rect1"
       width="396.875"
       height="396.875"
       x="-1.9052292"
       y="1.9052292"
       transform="translate(0,38.192929)" />
    <path
       d="m 196.50724,303.44259 c -0.77613,-0.14987 -2.23474,-0.59022 -2.91651,-0.8805 -1.04938,-0.44678 -81.67333,-47.42065 -82.68291,-48.17348 -2.76456,-2.06147 -4.53019,-5.24293 -4.93184,-8.88654 -0.1902,-1.72552 -0.1902,-94.00822 0,-95.73375 0.40163,-3.64346 2.16641,-6.8235 4.93184,-8.88692 0.45601,-0.34025 10.07333,-6.00174 21.37181,-12.58108 11.29848,-6.57934 21.65542,-12.61084 23.01542,-13.40333 28.50623,-16.611013 37.68159,-21.927233 38.29624,-22.188923 1.75787,-0.74844 2.56935,-0.89765 4.88146,-0.89765 2.32363,0 3.12114,0.14818 4.92038,0.91422 0.80928,0.34455 80.49191,46.688483 82.06903,47.731863 2.58923,1.71298 4.48109,4.46073 5.29485,7.69029 l 0.28465,1.12969 v 48.35872 48.35872 l -0.28465,1.12969 c -0.81373,3.22945 -2.70516,5.97664 -5.29485,7.69046 -1.22951,0.81369 -80.29723,46.86474 -81.47332,47.45213 -0.52307,0.26125 -1.46461,0.62997 -2.09232,0.81937 -0.98602,0.29752 -1.40861,0.3494 -3.10676,0.3813 -1.08102,0.0203 -2.10816,0.009 -2.28252,-0.0242 z m -4.00798,-16.54025 c 0.0423,-0.1116 0.077,-19.35354 0.077,-42.75989 v -42.557 l -0.29,-0.43585 c -0.23045,-0.34638 -1.69488,-1.25432 -7.13287,-4.42231 -52.51218,-30.59197 -65.59991,-38.20775 -65.95117,-38.37721 -0.34058,-0.16427 -0.45058,-0.17066 -0.61158,-0.0355 -0.17646,0.14816 -0.1963,4.46765 -0.1963,42.76963 0,41.22342 0.008,42.61932 0.23485,43.05178 0.19464,0.37044 0.71016,0.72588 3.01166,2.07644 1.52725,0.89621 2.86526,1.63218 2.97336,1.63548 0.1081,0.003 0.26503,-0.0633 0.34872,-0.14796 0.11767,-0.11903 0.15217,-8.84021 0.15217,-38.47257 0,-34.66411 0.019,-38.33788 0.19927,-38.52022 0.10959,-0.11087 0.22623,-0.20157 0.25918,-0.20157 0.0551,0 6.86585,3.96193 45.81935,26.65408 9.33825,5.43994 13.96383,8.20318 14.13895,8.44636 l 0.26027,0.36142 0.0634,38.63542 0.0634,38.63543 0.26196,0.35493 c 0.32995,0.447 5.45169,3.48116 5.9063,3.49893 0.19778,0.008 0.3667,-0.0701 0.41212,-0.18981 z m 15.35272,-1.37963 c 1.95458,-1.14835 2.7352,-1.67706 2.94826,-1.99687 l 0.28978,-0.43499 0.003,-38.36656 c 0.003,-36.94633 0.0115,-38.38575 0.23558,-38.885 0.22715,-0.50585 0.94485,-0.93316 29.5115,-17.57089 16.10325,-9.37884 29.58021,-17.21769 29.94877,-17.41966 0.54037,-0.29613 0.7061,-0.33702 0.85595,-0.21123 0.16247,0.13641 0.18584,4.96675 0.18584,38.43808 0,26.1435 0.0416,38.36073 0.13126,38.53016 0.0722,0.13647 0.22394,0.24812 0.33722,0.24812 0.11326,0 1.45845,-0.73045 2.98927,-1.62322 2.04386,-1.19196 2.84692,-1.72871 3.02269,-2.0203 0.23335,-0.38709 0.23937,-1.46988 0.23984,-43.06403 0,-38.48052 -0.019,-42.68323 -0.19714,-42.83285 -0.16415,-0.13779 -0.28766,-0.12019 -0.72914,0.1039 -0.29234,0.14837 -16.75992,9.72576 -36.59462,21.28308 -24.29549,14.15652 -36.15024,21.13147 -36.33013,21.37544 l -0.26703,0.36215 -0.0348,42.54499 c -0.0192,23.39974 -0.004,42.67486 0.0341,42.8336 0.12605,0.5279 0.66823,0.32278 3.42,-1.29392 z m -25.92436,-4.90358 c 0.078,-0.2077 0.12366,-6.51256 0.12366,-17.09719 v -16.76817 l -0.28531,-0.56552 c -0.28219,-0.55931 -0.57062,-0.73163 -26.26935,-15.69484 -20.38606,-11.86989 -26.02746,-15.10162 -26.18558,-15.00073 -0.18233,0.11634 -0.20465,1.76988 -0.23373,17.31556 l -0.0322,17.18694 0.28577,0.4247 c 0.2062,0.30643 1.03816,0.86556 2.98767,2.00788 1.48603,0.87075 2.81074,1.58319 2.94379,1.58319 0.13304,0 0.30097,-0.11165 0.37316,-0.24812 0.088,-0.16626 0.13128,-4.45981 0.13128,-13.01514 0,-12.27374 0.009,-12.77191 0.23373,-12.89356 0.19128,-0.10356 3.69703,1.88937 19.30632,10.97516 10.48994,6.10593 19.24379,11.27037 19.45302,11.47656 l 0.38042,0.37486 0.0634,13.11344 c 0.0464,9.5929 0.1028,13.18269 0.21017,13.37141 0.0807,0.14189 0.27123,0.37193 0.42336,0.51118 0.48696,0.4458 5.37885,3.25885 5.67825,3.26525 0.19606,0.004 0.32807,-0.0992 0.41213,-0.32286 z m 36.53907,-1.29 c 2.44669,-1.42572 2.80814,-1.67784 3.02679,-2.1114 0.24165,-0.47915 0.2483,-0.8373 0.2483,-13.36986 v -12.87752 l 0.28778,-0.43197 c 0.23014,-0.34545 2.24281,-1.57103 10.04944,-6.11945 29.5876,-17.23877 28.71517,-16.73868 28.91204,-16.5734 0.16333,0.13712 0.18764,1.79952 0.18764,12.83243 0,7.92506 0.0463,12.79823 0.12366,13.00396 0.0758,0.20165 0.22174,0.32903 0.37701,0.32903 0.27899,0 5.21508,-2.8204 5.6975,-3.25546 0.6788,-0.61215 0.64939,0.20084 0.64939,-17.9553 0,-16.22087 -0.009,-16.86883 -0.23497,-17.15128 l -0.23498,-0.29354 -0.49416,0.26199 c -0.5914,0.31355 -48.50231,28.20857 -50.33888,29.30868 -0.7607,0.45565 -1.3636,0.91241 -1.48997,1.12881 -0.19561,0.33496 -0.21225,1.70202 -0.21225,17.42549 0,9.38412 0.0346,17.15332 0.077,17.26492 0.0423,0.1116 0.19245,0.20291 0.33358,0.20291 0.14115,0 1.50695,-0.72858 3.03511,-1.61904 z m -36.53907,-38.98756 c 0.16965,-0.45141 0.16672,-30.99992 -0.002,-31.61809 -0.0689,-0.25094 -0.28259,-0.60417 -0.47482,-0.78497 -0.4154,-0.39068 -51.66844,-30.24968 -51.92365,-30.24968 -0.48554,0 -0.48004,-0.18529 -0.48004,16.20026 0,17.95439 -0.10427,16.28864 1.06408,16.99931 4.26367,2.5935 51.19236,29.78221 51.40501,29.78221 0.19314,0 0.32954,-0.10885 0.4123,-0.32904 z m -26.50576,-23.13152 c -15.2733,-8.9088 -19.14159,-11.21683 -19.37074,-11.55768 l -0.28629,-0.42589 0.0327,-7.57968 c 0.0323,-7.46992 0.0364,-7.58018 0.28631,-7.61464 0.1497,-0.0206 8.09912,4.53347 19.40144,11.1148 15.02934,8.7516 19.2094,11.23972 19.43413,11.5679 l 0.2863,0.4181 -0.0327,7.57969 -0.0327,7.57967 -0.31702,0.0247 c -0.21686,0.017 -6.3464,-3.49214 -19.40143,-11.10704 z m 86.17782,8.40866 c 25.45758,-14.82 25.86033,-15.06053 26.14124,-15.61228 l 0.28532,-0.56039 v -15.63048 c 0,-10.5292 -0.0429,-15.71148 -0.13127,-15.87861 -0.0722,-0.13647 -0.24269,-0.24812 -0.37889,-0.24812 -0.32586,0 -51.55727,29.8174 -52.05123,30.29454 l -0.38042,0.36748 -0.0332,15.99936 c -0.0183,8.79964 -0.006,16.07159 0.0278,16.15988 0.0335,0.0883 0.19677,0.16052 0.36283,0.16052 0.16943,0 11.64881,-6.60552 26.15789,-15.0519 z m -19.77336,2.65223 c -0.0465,-0.047 -0.0845,-3.43914 -0.0845,-7.53801 0,-7.02213 0.0136,-7.4783 0.23605,-7.89945 0.19932,-0.37737 0.78652,-0.76805 3.77251,-2.50989 5.85394,-3.41482 19.80696,-11.54456 27.59567,-16.07866 4.02642,-2.34392 7.42167,-4.242 7.54501,-4.21795 0.21151,0.0412 0.22425,0.48282 0.22425,7.76792 v 7.72421 l -0.38041,0.36983 c -0.47814,0.46482 -38.26853,22.46752 -38.58876,22.46752 -0.12939,0 -0.27328,-0.0385 -0.31978,-0.0855 z m 13.73281,-59.0812 c 24.43209,-14.2316 36.49241,-21.32417 36.57382,-21.50874 0.0881,-0.19977 0.072,-0.32337 -0.0588,-0.4502 -0.0992,-0.0962 -11.07933,-6.52144 -24.40037,-14.27843 -13.32105,-7.75697 -29.4932,-17.17546 -35.93814,-20.92996 -6.44492,-3.75449 -11.99623,-6.97348 -12.33623,-7.15332 -0.48116,-0.2545 -0.72624,-0.30949 -1.10574,-0.2481 -0.41044,0.0664 -25.07461,14.36267 -71.55219,41.47434 -1.83526,1.07056 -2.06774,1.26792 -1.92787,1.63665 0.0391,0.10294 1.31639,0.91106 2.83851,1.79581 2.46615,1.43347 2.83236,1.60864 3.36293,1.60864 0.55848,0 1.92992,-0.77735 22.10673,-12.53017 11.83123,-6.89159 23.5656,-13.7256 26.07636,-15.1867 2.51078,-1.46108 7.64634,-4.45204 11.4124,-6.64656 6.04119,-3.52029 6.91072,-3.99003 7.38568,-3.99003 0.48033,0 1.92871,0.80995 13.44174,7.51683 7.09686,4.13426 20.50628,11.94124 29.7987,17.34885 10.61552,6.17755 16.92436,9.92076 16.97344,10.07079 0.0431,0.13179 0.002,0.31181 -0.0934,0.40175 -0.0943,0.0896 -14.86526,8.71673 -32.82427,19.17132 -17.95901,10.45461 -32.75833,19.11278 -32.88738,19.24039 -0.18433,0.18227 -0.20587,0.28639 -0.10047,0.48562 0.0738,0.13948 1.11797,0.82476 2.32038,1.52283 3.57202,2.07375 3.41082,1.99525 3.97465,1.93552 0.39076,-0.0414 8.87773,-4.92955 36.95958,-21.28713 z m -40.71085,11.35745 c 3.45807,-2.01514 7.0007,-4.07999 7.87249,-4.58859 0.8718,-0.5086 4.4953,-2.61488 8.05223,-4.68064 3.55693,-2.06575 6.60138,-3.88551 6.76541,-4.04391 0.23628,-0.22815 0.27126,-0.338 0.16835,-0.52853 -0.13534,-0.25055 -51.42136,-30.1846 -52.00063,-30.35116 -0.18146,-0.0522 -0.50717,-0.0618 -0.72378,-0.0213 -0.46879,0.0876 -29.3491,16.87663 -29.53191,17.16782 -0.0851,0.13558 -0.0808,0.27397 0.0132,0.42543 0.0766,0.12347 1.36027,0.93807 2.85251,1.81023 3.50741,2.04995 3.13316,2.0306 6.07792,0.31408 1.21811,-0.71007 6.15209,-3.58663 10.96441,-6.39239 9.34557,-5.44879 9.34685,-5.44941 10.21863,-4.99463 0.36404,0.18991 10.96089,6.35049 27.44297,15.95422 2.02257,1.17851 5.25919,3.06282 7.19251,4.18734 1.9333,1.12453 3.54756,2.12734 3.58723,2.22846 0.0397,0.10112 -0.0299,0.28652 -0.15474,0.412 -0.12477,0.12549 -5.04868,3.03434 -10.94202,6.46409 -5.89334,3.42977 -10.79388,6.3132 -10.89012,6.40765 -0.43292,0.42491 -0.0904,0.72907 2.52887,2.24578 2.92104,1.69144 3.19421,1.81547 3.78574,1.71873 0.23993,-0.0392 3.23942,-1.70605 6.72075,-3.73473 z m 41.72989,-24.30863 c 13.08613,-7.62242 13.50492,-7.87801 13.50492,-8.24268 0,-0.41079 1.02088,0.21001 -14.64618,-8.90617 -2.26666,-1.3189 -11.57255,-6.73847 -20.67973,-12.04347 -14.0736,-8.198 -16.63167,-9.64546 -17.04602,-9.64546 -0.41313,0 -2.51114,1.17752 -13.74829,7.71637 -7.29343,4.24401 -13.42092,7.82904 -13.61662,7.96674 -0.26071,0.18344 -0.34545,0.33817 -0.31701,0.57891 0.0346,0.29202 2.88474,1.98613 25.65376,15.24788 14.08823,8.20566 25.78615,15.00905 25.99538,15.11864 0.24002,0.12574 0.56763,0.17646 0.88765,0.13744 0.37588,-0.0458 4.00417,-2.09874 14.01214,-7.9282 z m -14.3398,-0.333 c -0.75606,-0.32821 -38.29534,-22.313 -38.35122,-22.4603 -0.0387,-0.10214 0.0316,-0.28635 0.15641,-0.40936 0.20646,-0.20355 11.09344,-6.59214 12.26538,-7.19746 1.0489,-0.54176 -0.164,-1.18421 20.63342,10.92912 10.55126,6.14552 19.2247,11.2401 19.27431,11.32129 0.0496,0.0812 0.041,0.24047 -0.019,0.35396 -0.06,0.11348 -2.95679,1.86271 -6.43721,3.88715 -5.43612,3.16203 -6.39804,3.67956 -6.82466,3.6718 -0.27314,-0.005 -0.587,-0.0482 -0.69746,-0.0962 z"
       style="fill:#000000;stroke-width:0.127537;filter:url(#filter2)"
       id="path1" />
    <text
       xml:space="preserve"
       style="font-style:normal;font-variant:normal;font-weight:normal;font-stretch:normal;font-size:70.5556px;font-family:'Microsoft Yi Baiti';-inkscape-font-specification:'Microsoft Yi Baiti';fill:#000000;stroke:#ffffff;stroke-width:0.0198437;filter:url(#filter4)"
       x="36.035583"
       y="379.23566"
       id="text7"><tspan
         id="tspan7"
         style="font-style:normal;font-variant:normal;font-weight:normal;font-stretch:normal;font-size:70.5556px;font-family:'Copperplate Gothic Light';-inkscape-font-specification:'Copperplate Gothic Light, ';fill:#000000;stroke-width:0.0198437"
         x="36.035583"
         y="379.23566">ACUBED</tspan></text>
  </g>
</svg>
